PathFileType	4	(X/Y/Z)	TYPE-2_1685523821198
DataRate	CameraRate	NumFrames	NumMarkers	Units	OrigDataRate	OrigDataStartFrame	OrigNumFrames
60.00	60.00	       17	13	mm  	60.00	114	       199
Frame#	Time	H			R			B			RF			RK			RB			RA			RD			LF			LK			LB			LA			LD			
		X1	Y1	Z1	X2	Y2	Z2	X3	Y3	Z3	X4	Y4	Z4	X5	Y5	Z5	X6	Y6	Z6	X7	Y7	Z7	X8	Y8	Z8	X9	Y9	Z9	X10	Y10	Z10	X11	Y11	Z11	X12	Y12	Z12	X13	Y13	Z13	
114	1.883333	1204.338586	862.505955	-234.227923	1386.849518	868.678628	-75.406710	1424.219215	855.999624	-323.481440	1252.051682	543.195240	-15.181439	1247.714128	418.240315	-83.080844	1111.081173	146.142208	-77.909145	1092.396324	56.054546	-135.631981	1187.989344	55.220401	-148.144156	1486.613263	517.670402	-419.408118	1536.495135	443.598324	-367.524298	1576.534096	143.306115	-395.551571	1617.240373	62.560877	-350.174081	1719.172895	94.091559	-341.498973	
115	1.900000	1229.529766	855.999624	-237.397674	1409.871920	863.673758	-75.740368	1451.245513	849.159635	-320.311689	1263.396054	542.027437	-15.681926	1254.720946	417.572999	-83.247673	1113.249950	148.144156	-78.242803	1093.063640	57.389178	-135.298323	1188.323002	55.720888	-148.310985	1510.803468	508.828465	-417.406170	1561.185828	436.925164	-365.355521	1626.249140	141.470996	-393.716452	1676.965157	62.060390	-345.502869	1774.726954	104.434957	-341.332144	
116	1.916667	1255.221433	849.326464	-241.234741	1433.061152	858.168401	-75.573539	1478.104983	842.152817	-322.814124	1274.907255	541.860608	-16.182413	1262.561909	417.406170	-83.748160	1115.919214	150.312933	-78.409632	1094.064614	59.891613	-135.965639	1189.157147	55.387230	-150.146104	1535.327332	499.986528	-417.239341	1585.709691	430.085175	-364.187718	1672.961261	140.136364	-391.547674	1732.686045	66.231115	-355.345780	1825.442971	114.444697	-340.331170	
117	1.933333	1281.580416	842.486475	-245.071808	1456.417213	853.664018	-76.407684	1507.633717	834.478682	-322.146808	1287.586260	541.193292	-16.516071	1271.570675	417.739828	-84.248647	1118.588478	154.150001	-78.910119	1094.565101	64.062338	-136.632955	1190.158121	55.387230	-152.148052	1561.185828	492.145564	-416.572025	1612.235503	424.079330	-362.018941	1716.003144	139.135390	-389.212068	1779.731824	70.235011	-347.337988	1871.320948	123.620293	-338.496051	
118	1.950000	1308.439885	836.313801	-248.742046	1480.607418	846.156713	-74.238907	1536.328306	828.472838	-321.646321	1302.100383	540.525976	-16.849729	1281.914074	417.906657	-85.082792	1121.925058	159.321700	-79.744264	1095.566075	69.067208	-137.467100	1191.492753	56.555033	-150.646591	1588.879443	485.806062	-415.904709	1640.262776	418.740802	-360.183822	1754.707473	137.800758	-387.376949	1819.937614	70.735498	-344.835553	1912.027225	129.292479	-336.327274	
119	1.966667	1335.466184	831.976247	-252.245455	1504.797624	840.317698	-73.237933	1565.022895	823.467968	-320.979005	1318.115968	540.525976	-17.350217	1293.925762	418.407144	-85.916938	1126.429441	165.327544	-80.244751	1097.568023	74.906223	-137.800758	1193.494701	57.889665	-147.143182	1618.741834	481.468508	-415.404222	1669.624681	414.236419	-359.850164	1788.573761	135.798810	-386.042317	1857.140482	72.070130	-344.001408	1947.228145	130.126624	-333.824839	
120	1.983333	1363.493457	829.140154	-256.249352	1529.655146	835.980143	-73.237933	1593.884313	819.297243	-319.644373	1335.633013	540.525976	-18.851678	1308.273056	419.074460	-86.584254	1132.768943	172.000704	-80.411580	1100.737774	82.079870	-137.133442	1196.163965	60.225271	-145.808550	1650.773003	479.299731	-415.237393	1700.154389	410.566181	-359.850164	1818.436153	132.462230	-384.707685	1888.337506	68.566721	-341.999460	1977.424195	126.122728	-331.656062	
121	2.000000	1392.188046	826.637719	-260.753735	1555.680471	831.308931	-73.237933	1622.912560	815.793834	-318.643399	1355.152007	540.525976	-20.353139	1325.122786	419.574947	-86.751083	1141.110393	179.674838	-79.410606	1105.742644	90.421321	-135.798810	1199.834203	62.894535	-145.474892	1684.972949	478.799244	-415.904709	1732.018729	408.564233	-359.850164	1844.795136	127.624189	-383.539882	1909.858448	61.059416	-338.829709	2003.616349	117.948106	-330.655088	
122	2.016667	1421.883609	824.302113	-264.257144	1583.207256	826.470890	-73.237933	1652.608122	813.291399	-318.309741	1377.006606	541.360121	-21.020455	1343.974463	420.242263	-87.084741	1151.120134	188.016289	-78.242803	1111.915318	99.763745	-133.963691	1204.338586	65.230141	-144.974405	1720.340698	479.132902	-416.738854	1764.717214	407.730088	-359.349677	1867.817539	121.451516	-382.872566	1930.211587	54.886743	-337.995564	2023.135342	106.603734	-326.651192	
123	2.033333	1452.746975	822.300165	-266.759579	1612.735990	822.466994	-73.571591	1682.804172	811.289451	-318.476570	1400.863154	542.194266	-21.687771	1365.161747	421.410066	-86.751083	1162.964993	197.191884	-77.742316	1119.589452	109.773485	-132.962717	1209.510285	67.565747	-143.973431	1754.874302	480.133876	-417.239341	1797.082041	406.895943	-358.849190	1888.671164	115.445671	-381.204276	1945.726684	45.043831	-335.659958	2039.818243	93.090585	-323.648269	
124	2.050000	1483.610340	820.965533	-268.594698	1643.766185	818.963585	-74.906223	1712.833393	809.621161	-319.477544	1427.222137	542.027437	-21.854600	1389.185124	421.910553	-85.916938	1177.145458	207.201624	-76.574513	1129.599192	121.618345	-131.794914	1216.683933	70.235011	-141.637825	1787.405958	481.134850	-417.906657	1827.611749	405.728140	-360.183822	1910.025277	111.108117	-379.035499	1958.405688	32.865314	-331.656062	2057.001630	77.742316	-322.146808	
125	2.066667	1513.639561	820.631875	-269.595672	1676.631499	815.460176	-76.741342	1741.861640	807.952871	-321.646321	1455.749897	541.193292	-22.688745	1416.545080	421.743724	-85.416451	1194.662504	217.211364	-75.239881	1142.945512	134.797836	-129.459308	1225.692699	72.737446	-139.302219	1816.767863	481.134850	-419.074460	1856.139508	406.395456	-362.853086	1930.878903	109.439827	-379.035499	0.000000	0.000000	0.000000	2079.023059	61.393074	-324.315585	
126	2.083333	1542.500979	820.465046	-269.262014	1709.663642	812.123596	-78.910119	1770.556229	808.119700	-324.315585	1487.113750	539.525002	-23.689719	1447.241617	420.742750	-83.914989	1215.516130	226.887447	-73.738420	1160.128900	146.976353	-125.789070	1236.036097	74.238907	-138.134416	1842.960017	479.967047	-419.908605	1888.003848	411.900813	-365.021863	1947.895461	110.941288	-381.204276	0.000000	0.000000	0.000000	2085.696219	51.383334	-320.812176	
127	2.100000	1570.528252	820.965533	-267.260066	1742.195298	809.621161	-82.914015	1800.251792	811.789938	-326.984850	1521.814183	537.189396	-24.190206	1481.942050	418.407144	-80.912067	1240.206822	236.229871	-70.902327	1180.815697	158.153897	-122.452490	1248.381444	76.407684	-136.466126	1877.326792	490.977761	-424.579817	1925.707203	420.075434	-366.022837	1961.909097	113.610552	-383.039395	0.000000	0.000000	0.000000	2091.868892	48.046753	-319.644373	
128	2.116667	1598.055038	822.133336	-264.090315	1773.892809	808.620187	-89.253518	1822.106391	817.628953	-331.656062	1559.851196	533.185500	-24.190206	1519.812234	413.902761	-77.241829	1269.568727	244.571321	-66.898431	1205.506389	169.998756	-119.449567	1263.729712	80.745238	-133.963691	1912.194054	500.987502	-428.917372	1952.066186	422.411040	-370.360391	1972.085667	114.277868	-383.539882	0.000000	0.000000	0.000000	2095.872788	44.376515	-319.644373	
129	2.133333	1625.081337	822.800652	-260.420077	1804.589346	808.286529	-95.426191	1847.964887	823.634797	-338.329222	1600.891131	527.179655	-23.022403	1563.354605	407.229601	-73.404762	1304.102331	251.578139	-62.394048	1235.535610	182.844589	-116.613474	1283.081877	88.419373	-132.629059	1928.042809	494.981657	-432.587610	1975.755905	422.411040	-373.863800	1978.758827	113.443723	-383.373053	0.000000	0.000000	0.000000	2098.041565	42.207738	-318.476570	
130	2.150000	1650.773003	823.301139	-256.916668	1834.618567	807.452384	-100.931548	1878.995082	830.975273	-343.834579	1643.599356	521.173811	-20.519968	1608.398436	399.722296	-70.568669	1343.640805	256.749839	-58.390152	1270.903359	195.356765	-114.277868	1307.105253	98.595942	-131.628085	1944.725710	492.312393	-435.090045	1994.774411	420.409092	-376.533064	1984.931500	113.276894	-383.039395	0.000000	0.000000	0.000000	2098.875710	41.707251	-317.141938	
